# AST/ASF file generated using VICON BodyLanguage
# -----------------------------------------------
:version 1.10
:name VICON
:units
  mass 1.0
  length 0.45
  angle deg
:documentation
   .ast/.asf automatically generated from VICON data using
   VICON BodyBuilder and BodyLanguage model FoxedUp or BRILLIANT.MOD
:root
   order TX TY TZ RX RY RZ
   axis XYZ
   position 0 0 0  
   orientation 0 0 0 
:bonedata
  begin
     id 1 
     name lhipjoint
     direction 0.547975 -0.797114 0.253638 
     length 2.36201 
     axis 0 0 0  XYZ
  end
  begin
     id 2 
     name lfemur
     direction 0.34202 -0.939693 0  
     length 7.69075  
     axis 0 0 20  XYZ
    dof rx ry rz
    limits (-160.0 20.0)
           (-70.0 70.0)
           (-60.0 70.0)
  end
  begin
     id 3 
     name ltibia
     direction 0.34202 -0.939693 0   
     length 7.91399   
     axis 0 0 20   XYZ
    dof rx
    limits (-10.0 170.0)
  end
  begin
     id 4 
     name lfoot
     direction 0.0705293 -0.193778 0.978507   
     length 2.13618   
     axis -90 7.62852e-016 20   XYZ
    dof rx rz
    limits (-45.0 90.0)
           (-70.0 20.0)
  end
  begin
     id 5 
     name ltoes
     direction 1.53592e-011 -4.21925e-011 1   
     length 1.07518   
     axis -90 7.62852e-016 20   XYZ
    dof rx
    limits (-90.0 20.0)
  end
  begin
     id 6 
     name rhipjoint
     direction -0.57 -0.782963 0.249136   
     length 2.4047  
     axis 0 0 0  XYZ 
  end
  begin
     id 7 
     name rfemur
     direction -0.34202 -0.939693 0   
     length 7.51486   
     axis 0 0 -20   XYZ
    dof rx ry rz
    limits (-160.0 20.0)
           (-70.0 70.0)
           (-70.0 60.0)
  end
  begin
     id 8 
     name rtibia
     direction -0.34202 -0.939693 0   
     length 8.08317   
     axis 0 0 -20   XYZ
    dof rx
    limits (-10.0 170.0)
 end
 begin
     id 9 
     name rfoot
     direction -0.104954 -0.281256 0.953876   
     length 2.30343  
     axis -90 -7.62852e-016 -20   XYZ
    dof rx rz
    limits (-45.0 90.0)
           (-20.0 70.0)
  end
  begin
     id 10 
     name rtoes
     direction -1.53556e-011 -4.21922e-011 1   
     length 1.14803   
     axis -90 -7.62852e-016 -20   XYZ
    dof rx
    limits (-90.0 20.0)
  end
  begin
     id 11 
     name lowerback
     direction -0.0152855 0.99353 -0.11254   
     length 2.05311   
     axis 0 0 0   XYZ
    dof rx ry rz
    limits (-20.0 45.0)
           (-30.0 30.0)
           (-30.0 30.0)
  end
  begin
     id 12 
     name upperback
     direction -0.00157509 0.999443 -0.033332   
     length 2.06353   
     axis 0 0 0   XYZ
    dof rx ry rz
    limits (-20.0 45.0)
           (-30.0 30.0)
           (-30.0 30.0)
  end
  begin
     id 13 
     name thorax
     direction 0.00577788 0.999804 0.0189484   
     length 2.08472   
     axis 0 0 0   XYZ
    dof rx ry rz
    limits (-20.0 45.0)
           (-30.0 30.0)
           (-30.0 30.0)
  end
  begin
     id 14 
     name lowerneck
     direction -1.09301e-005 0.994719 0.10264   
     length 1.76249   
     axis 0 0 0   XYZ
    dof rx ry rz
    limits (-20.0 45.0)
           (-30.0 30.0)
           (-30.0 30.0)
  end
  begin
     id 15 
     name upperneck
     direction 0.0495018 0.988526 -0.142706   
     length 1.77897   
     axis 0 0 0   XYZ
    dof rx ry rz
    limits (-20.0 45.0)
           (-30.0 30.0)
           (-30.0 30.0)
  end
  begin
     id 16
     name head
     direction 0.0142736 0.998114 -0.0597101  
     length 1.78934  
     axis 0 0 0   XYZ
    dof rx ry rz
    limits (-20.0 45.0)
           (-30.0 30.0)
           (-30.0 30.0)
  end
  begin
     id 17 
     name lclavicle
     direction 0.918111 0.396107 -0.0130883  
     length 3.37276  
     axis 0 0 0   XYZ
    dof ry rz
    limits (-20.0 10.0)
           (0.0 20.0)
  end
  begin
     id 18 
     name lhumerus
     direction 1 -4.48975e-011 -3.26108e-027   
     length 5.34298   
     axis 180 -30 -90   XYZ
    dof rx ry rz
    limits (-60.0 90.0)
           (-90.0 90.0)
           (-90.0 90.0)
  end
  begin
     id 19
     name lradius
     direction 1 -4.48964e-011 -8.84413e-028   
     length 3.67262   
     axis 180 -30 -90   XYZ
    dof rx
    limits (-10.0 170.0)
  end
  begin
     id 20
     name lwrist
     direction 1 -4.48991e-011 -1.24264e-027   
     length 1.83631   
     axis -2.17013e-015 90 90   XYZ
    dof ry
    limits (-180.0 0.0)
 end
  begin
     id 21 
     name lhand
     direction 1 -4.48855e-011 -2.48528e-027   
     length 0.599298   
     axis 1.58582e-015 90 90   XYZ
    dof rx rz
    limits (-90.0 90.0)
           (-45.0 45.0)
  end
  begin
     id 22 
     name lfingers
     direction 1 -4.48811e-011 -4.97056e-027   
     length 0.48317   
     axis 3.17164e-015 90 90   XYZ
    dof rx
    limits (0.0 90.0)
  end
  begin
     id 23
     name lthumb
     direction 0.707107 -6.34882e-011 0.707107   
     length 0.693738   
     axis -90 45 2.85299e-015   XYZ
    dof rx rz
    limits (-45.0 45.0)
           (-45.0 45.0)
  end
  begin
     id 24 
     name rclavicle
     direction -0.920511 0.384752 -0.0680135   
     length 3.43787  
     axis 0 0 0   XYZ 
    dof ry rz
    limits (-10.0 20.0)
           (-20.0 0.0)
  end
  begin
     id 25 
     name rhumerus
     direction -0.999976 -0.00330524 0.00603274  
     length 5.5498   
     axis 180 30 90   XYZ
    dof rx ry rz
    limits (-90.0 60.0)
           (-90.0 90.0)
           (-90.0 90.0)
  end
  begin
     id 26 
     name rradius
     direction -1 -4.48967e-011 8.62438e-027   
     length 3.69401   
     axis 180 30 90   XYZ
    dof rx
    limits (-10.0 170.0)
  end
  begin
     id 27 
     name rwrist
     direction -1 -4.4897e-011 9.54866e-027   
     length 1.84701   
     axis -7.69462e-015 -90 -90   XYZ
    dof ry
    limits (-180.0 0.0)
  end
  begin
     id 28
     name rhand
     direction -1 -4.48982e-011 1.90973e-026   
     length 0.638113   
     axis -1.21857e-014 -90 -90   XYZ
    dof rx rz
    limits (-90.0 90.0)
           (-45.0 45.0)
  end
  begin
     id 29
     name rfingers
     direction -1 -4.48936e-011 3.81946e-026   
     length 0.514463   
     axis -2.43714e-014 -90 -90   XYZ
    dof rx
    limits (0.0 90.0)
  end
  begin
     id 30
     name rthumb
     direction -0.707107 -6.34942e-011 0.707107   
     length 0.738669   
     axis -90 -45 -2.85299e-015   XYZ
    dof rx rz
    limits (-45.0 45.0)
           (-45.0 45.0)
  end
:hierarchy
  begin
    root lhipjoint rhipjoint lowerback
    lhipjoint lfemur
    lfemur ltibia
    ltibia lfoot
    lfoot ltoes
    rhipjoint rfemur
    rfemur rtibia
    rtibia rfoot
    rfoot rtoes
    lowerback upperback
    upperback thorax
    thorax lowerneck lclavicle rclavicle
    lowerneck upperneck
    upperneck head
    lclavicle lhumerus
    lhumerus lradius
    lradius lwrist
    lwrist lhand lthumb
    lhand lfingers
    rclavicle rhumerus
    rhumerus rradius
    rradius rwrist
    rwrist rhand rthumb
    rhand rfingers
  end

#!OML:ASF F:\twosubjects\two\Thursday\Session 1\Rory.ASF
:FULLY-SPECIFIED
:DEGREES
178
root 17.5316 18.4122 -12.914 -172.397 7.46961 180.297
lowerback 2.1463 3.16397 0.310504
upperback 1.12128 4.25856 -1.32929
thorax 0.0721698 2.15075 -1.61679
lowerneck -13.3526 -2.14555 -1.84924
upperneck -1.34049 -3.51706 9.50236
head 2.16138 -1.73135 3.25469
rclavicle 4.77083e-015 -1.45113e-014
rhumerus -30.6007 -5.87126 -79.8073
rradius 48.0668
rwrist 3.30082
rhand -26.1568 25.561
rfingers 7.12502
rthumb 0.394341 -4.41842
lclavicle 4.77083e-015 -1.45113e-014
lhumerus -69.3693 27.0158 31.5626
lradius 32.853
lwrist 29.5463
lhand 14.4452 29.2865
lfingers 7.12502
lthumb 39.3292 54.7114
rfemur -8.05533 2.01805 23.302
rtibia 28.0495
rfoot -13.5964 -2.51999
rtoes -18.1893
lfemur -31.3686 3.95381 -19.6805
ltibia 37.9147
lfoot -7.96214 12.916
ltoes 7.97345
179
root 17.538 18.4265 -13.0557 -172.217 7.55481 180.582
lowerback 2.34861 3.29792 0.359174
upperback 1.08724 4.43502 -1.22719
thorax -0.0747347 2.23701 -1.55722
lowerneck -13.3033 -2.3069 -1.97109
upperneck -1.67188 -3.68698 9.33736
head 2.04852 -1.83297 3.20678
rclavicle -2.98177e-015 -3.57812e-015
rhumerus -30.5772 -5.73065 -79.706
rradius 49.2962
rwrist 2.80042
rhand -26.5281 23.0937
rfingers 7.12502
rthumb 0.0357125 -6.88602
lclavicle -2.98177e-015 -3.57812e-015
lhumerus -69.5992 25.28 31.025
lradius 32.5958
lwrist 28.0267
lhand 15.4975 29.0326
lfingers 7.12502
lthumb 40.3197 54.1613
rfemur -7.37815 2.3361 23.5877
rtibia 27.3854
rfoot -13.1738 -2.63257
rtoes -17.0838
lfemur -31.4238 3.34168 -19.1398
ltibia 34.9401
lfoot -7.49194 13.6075
ltoes 6.59129
180
root 17.5388 18.4296 -13.2019 -171.915 7.63648 181.267
lowerback 2.34463 3.41633 1.00436
upperback 1.1297 4.60433 -1.0933
thorax 0.0158253 2.32358 -1.77877
lowerneck -13.4612 -2.49568 -2.07391
upperneck -1.89204 -3.91214 9.19176
head 2.0144 -1.95525 3.15897
rclavicle -2.51463e-014 7.95139e-015
rhumerus -30.489 -5.53296 -79.6728
rradius 50.4897
rwrist 2.20827
rhand -26.9866 23.1466
rfingers 7.12502
rthumb -0.407124 -6.83274
lclavicle -2.51463e-014 7.95139e-015
lhumerus -69.6467 23.868 30.2141
lradius 31.9728
lwrist 26.3235
lhand 16.5761 28.7733
lfingers 7.12502
lthumb 41.3331 53.5829
rfemur -6.74179 3.04196 24.3468
rtibia 26.6769
rfoot -12.8018 -3.10751
rtoes -16.9335
lfemur -31.4177 2.72039 -18.1338
ltibia 31.8869
lfoot -6.35471 14.3081
ltoes 4.14146
181
root 17.5398 18.4392 -13.3581 -171.682 7.79106 181.422
lowerback 2.18526 3.50257 1.12312
upperback 1.21647 4.72363 -1.15302
thorax 0.213027 2.38733 -1.8925
lowerneck -13.6403 -2.50458 -1.99696
upperneck -2.06959 -3.93313 9.0228
head 1.97959 -1.97763 3.08263
rclavicle 1.15196e-013 -1.17283e-014
rhumerus -30.4192 -5.25159 -79.663
rradius 51.5485
rwrist 1.47574
rhand -27.3387 24.7403
rfingers 7.12502
rthumb -0.747203 -5.23809
lclavicle 1.15196e-013 -1.17283e-014
lhumerus -69.6686 22.3482 29.6342
lradius 31.4874
lwrist 24.9281
lhand 16.7876 28.524
lfingers 7.12502
lthumb 41.5316 53.2691
rfemur -6.13941 3.33386 24.4651
rtibia 26.0564
rfoot -12.5946 -3.26439
rtoes -18.1217
lfemur -31.2612 1.99041 -17.6437
ltibia 28.7065
lfoot -5.95074 15.0126
ltoes 5.85267
182
root 17.5397 18.4575 -13.5133 -171.415 7.99189 181.282
lowerback 2.10693 3.63915 0.815785
upperback 1.16201 4.89881 -1.21181
thorax 0.187547 2.4726 -1.78179
lowerneck -13.8529 -2.5281 -1.65687
upperneck -2.17654 -3.98392 8.38118
head 1.95152 -2.01777 2.79252
rclavicle 3.12589e-014 5.36719e-015
rhumerus -30.4145 -4.76436 -79.3525
rradius 52.3273
rwrist 0.802762
rhand -27.6026 25.0306
rfingers 7.12502
rthumb -1.00205 -4.94683
lclavicle 3.12589e-014 5.36719e-015
lhumerus -69.7716 20.6341 29.2724
lradius 31.183
lwrist 23.5803
lhand 17.3592 28.6575
lfingers 7.12502
lthumb 42.0676 53.2248
rfemur -5.68011 3.13671 24.1572
rtibia 25.5031
rfoot -12.3373 -2.84112
rtoes -18.4447
lfemur -31.1111 1.223 -17.4086
ltibia 25.4153
lfoot -6.11636 15.5403
ltoes 9.56399
